<svg id="Layer_1" data-name="Layer 1" xmlns="http://www.w3.org/2000/svg" viewBox="0 0 60 60"><defs><style>.cls-1{fill:#7c6d64;}</style></defs><title>icon-consultancy</title><path class="cls-1" d="M10.81,33.89H6.74c-3,0-5.89-1.46-5.89-4.83,0-2.46-.09-10.72,3.77-10.72.64,0,3.8,2.58,7.9,2.58a12.15,12.15,0,0,0,4-.7,14.8,14.8,0,0,0-.15,2A13.72,13.72,0,0,0,18.86,30,10.75,10.75,0,0,0,10.81,33.89Zm1.7-15.55a7.77,7.77,0,1,1,7.77-7.77A7.79,7.79,0,0,1,12.51,18.34ZM43.27,57.21H16.73c-4.86,0-8.11-2.95-8.11-7.86,0-6.86,1.61-17.4,10.51-17.4,1,0,4.8,4.22,10.87,4.22s9.84-4.22,10.87-4.22c8.9,0,10.51,10.54,10.51,17.4C51.38,54.26,48.13,57.21,43.27,57.21ZM30,33.89A11.66,11.66,0,1,1,41.66,22.23,11.66,11.66,0,0,1,30,33.89ZM47.49,18.34a7.77,7.77,0,1,1,7.77-7.77A7.79,7.79,0,0,1,47.49,18.34Zm5.77,15.55H49.19a10.75,10.75,0,0,0-8-3.89,13.72,13.72,0,0,0,2.46-7.77,14.8,14.8,0,0,0-.15-2,12.15,12.15,0,0,0,4,.7c4.1,0,7.26-2.58,7.9-2.58,3.86,0,3.77,8.26,3.77,10.72C59.15,32.43,56.3,33.89,53.26,33.89Z"/></svg>