<svg id="Layer_1" data-name="Layer 1" xmlns="http://www.w3.org/2000/svg" viewBox="0 0 60 60"><defs><style>.cls-1{fill:#7c6d64;}</style></defs><title>icon-marketing</title><path class="cls-1" d="M57.21,26.11A3.87,3.87,0,0,1,53.32,30V41.66a3.91,3.91,0,0,1-3.89,3.89C44,41.05,35.31,34.89,24.78,34c-3.61,1.21-4.86,5.44-2.49,7.86-2.13,3.49.61,6,3.83,8.47-1.88,3.7-9.72,3.77-12.51,1.18-1.76-5.4-4.37-10.81-2.25-17.64H7.65A4.87,4.87,0,0,1,2.79,29V23.2a4.87,4.87,0,0,1,4.86-4.86H22.23c11.66,0,21.38-6.8,27.21-11.66a3.91,3.91,0,0,1,3.89,3.89V22.23A3.87,3.87,0,0,1,57.21,26.11ZM49.43,11.6C41.51,17.67,33.83,21.17,26.11,22v8.2c7.71.85,15.4,4.28,23.32,10.35Z"/></svg>