<svg id="Layer_1" data-name="Layer 1" xmlns="http://www.w3.org/2000/svg" viewBox="0 0 156.27 35.54"><defs><style>.cls-1{fill:#fff;}</style></defs><title>logo-white</title><path class="cls-1" d="M207.43,267.77a3.63,3.63,0,0,1-2.88-1.26,5,5,0,0,1-1.1-3.43q0-2.17,2-10.79t2-11q0-2.38-1.86-2.38a9.84,9.84,0,0,0-5.67,2.29,91.25,91.25,0,0,1-2,9q-1.62,6.41-2.17,9.48a29.05,29.05,0,0,0-.55,4.74q0,1.67,0,2-1.86,1-6.62,1h-.9q0-4,2.24-13.63,2.29-9.81,2.29-12.34t-1.76-2.52q-2.57,0-6,2.48-.52,2.62-2,8.53-3.19,13.53-3.19,16.53-1.86,1-6.57,1h-.91q.19-2.14,2.53-12.6t2.91-15.65a4.5,4.5,0,0,0-.5-1.83,9,9,0,0,0-1-1.74l-.48-.67.14-.71a35.81,35.81,0,0,1,9.2-.81,6.07,6.07,0,0,1,.62,2.91q0,.38-.19,2,5.48-4.91,9.81-4.91a4.47,4.47,0,0,1,3.29,1.33,6.35,6.35,0,0,1,1.72,3.48q5.67-4.81,9.62-4.81a5.24,5.24,0,0,1,4,1.62,6.35,6.35,0,0,1,1.52,4.53q0,2.91-2,11.08T211,262q0,1.38.48,1.38a8.72,8.72,0,0,0,2.33-1l.67-.29,1,1.76a20.6,20.6,0,0,1-4.12,2.81A8.62,8.62,0,0,1,207.43,267.77Zm-26.8-19.15a.53.53,0,0,0,0,.24Z" transform="translate(-171.87 -232.23)"/><path class="cls-1" d="M231.61,247.47a7.45,7.45,0,0,0,.52-1.24,19.2,19.2,0,0,1,6,1.33,66.12,66.12,0,0,0-1.91,8.27,43.31,43.31,0,0,0-.71,6.15q0,1.83.38,1.83a9.79,9.79,0,0,0,2.1-.91l.57-.29.86,1.67q-.43.38-1.12,1a16.05,16.05,0,0,1-2.6,1.55,7.67,7.67,0,0,1-3.43,1q-3,0-3.43-2.67-3,2.67-5.5,2.67a5.33,5.33,0,0,1-4.15-1.91q-1.69-1.9-1.69-6,0-6.39,2.62-10.08t6.34-3.69A10.43,10.43,0,0,1,231.61,247.47Zm-5.43,16.25a4.94,4.94,0,0,0,2.57-.9A57.85,57.85,0,0,1,231,249.52a6.36,6.36,0,0,0-2.43-.62q-1.72,0-2.93,3.36a21.65,21.65,0,0,0-1.21,7.41Q224.42,263.72,226.18,263.72Z" transform="translate(-171.87 -232.23)"/><path class="cls-1" d="M250.14,249a31.87,31.87,0,0,1-1.29,6.88,33.15,33.15,0,0,0-1.29,6.38q0,1.5.43,1.5a10.91,10.91,0,0,0,2.19-.91l.57-.29.81,1.67q-.43.38-1.14,1a16.86,16.86,0,0,1-2.67,1.55,8.18,8.18,0,0,1-3.62,1,3.4,3.4,0,0,1-2.62-1,3.89,3.89,0,0,1-1-2.76,28.77,28.77,0,0,1,1.19-6.19,30.05,30.05,0,0,0,1.19-5.79,6.43,6.43,0,0,0-1.24-3.76l-.43-.57,0-.62a33.27,33.27,0,0,1,8.19-.71A4.31,4.31,0,0,1,250.14,249Zm-5.43-7.93a3.33,3.33,0,0,1-1-2.5,3.64,3.64,0,0,1,1.31-2.76,4.37,4.37,0,0,1,3-1.19,3.61,3.61,0,0,1,2.67,1,3.39,3.39,0,0,1,1,2.5,3.56,3.56,0,0,1-1.36,2.74,4.48,4.48,0,0,1-3,1.19A3.59,3.59,0,0,1,244.71,241.11Z" transform="translate(-171.87 -232.23)"/><path class="cls-1" d="M254.19,267.34h-.33a9.39,9.39,0,0,1-.1-1.74,52.67,52.67,0,0,1,1.29-7.31,64.79,64.79,0,0,0,1.29-6.81,5.54,5.54,0,0,0-1.33-3.24l-.43-.57,0-.62a33.89,33.89,0,0,1,8.24-.71,8.51,8.51,0,0,1,.57,3.48,11.27,11.27,0,0,1,2.19-2.29,5.24,5.24,0,0,1,3.43-1.43q2.57,0,2.57,4.48l-.64.74a9.35,9.35,0,0,1-1.62,1.26,6.07,6.07,0,0,1-2.36,1,10.92,10.92,0,0,1-.81-1.29q-.76-1.29-1.14-1.29a5.16,5.16,0,0,0-2.1,1.43q-2.19,9.86-2.19,12.77,0,1,0,1.48Q259.15,267.34,254.19,267.34Z" transform="translate(-171.87 -232.23)"/><path class="cls-1" d="M284.78,247.47a7.4,7.4,0,0,0,.53-1.24,19.2,19.2,0,0,1,6,1.33,66,66,0,0,0-1.9,8.27,43.33,43.33,0,0,0-.71,6.15c0,1.22.13,1.83.38,1.83a9.81,9.81,0,0,0,2.1-.91l.57-.29.86,1.67c-.29.25-.66.57-1.12,1a16.1,16.1,0,0,1-2.6,1.55,7.67,7.67,0,0,1-3.43,1q-3,0-3.43-2.67-3,2.67-5.5,2.67a5.33,5.33,0,0,1-4.14-1.91q-1.69-1.9-1.69-6,0-6.39,2.62-10.08t6.34-3.69A10.42,10.42,0,0,1,284.78,247.47Zm-5.43,16.25a4.94,4.94,0,0,0,2.57-.9,57.87,57.87,0,0,1,2.24-13.29,6.35,6.35,0,0,0-2.43-.62q-1.71,0-2.93,3.36a21.63,21.63,0,0,0-1.21,7.41Q277.59,263.72,279.35,263.72Z" transform="translate(-171.87 -232.23)"/><path class="cls-1" d="M297.14,267.77a3.64,3.64,0,0,1-2.72-1.1,4.21,4.21,0,0,1-1.07-3.07q0-2,2.36-12.62t2.36-15.37l-.29-2.1a21.33,21.33,0,0,1,7-1.29,4.2,4.2,0,0,1,.48,2.33q0,3.81-2.41,14.75T300.41,262q0,1.79.43,1.79l3.33-1.19.86,1.67a20.3,20.3,0,0,1-3.93,2.38A9.6,9.6,0,0,1,297.14,267.77Z" transform="translate(-171.87 -232.23)"/><path class="cls-1" d="M320.32,247.47a7.45,7.45,0,0,0,.52-1.24,19.21,19.21,0,0,1,6,1.33,66,66,0,0,0-1.91,8.27,43.33,43.33,0,0,0-.71,6.15q0,1.83.38,1.83a9.8,9.8,0,0,0,2.1-.91l.57-.29.86,1.67q-.43.38-1.12,1a16.07,16.07,0,0,1-2.6,1.55,7.67,7.67,0,0,1-3.43,1q-3,0-3.43-2.67-3,2.67-5.5,2.67a5.33,5.33,0,0,1-4.15-1.91q-1.69-1.9-1.69-6,0-6.39,2.62-10.08t6.34-3.69A10.43,10.43,0,0,1,320.32,247.47Zm-5.43,16.25a4.94,4.94,0,0,0,2.57-.9,57.88,57.88,0,0,1,2.24-13.29,6.36,6.36,0,0,0-2.43-.62q-1.72,0-2.93,3.36a21.66,21.66,0,0,0-1.21,7.41Q313.13,263.72,314.89,263.72Z" transform="translate(-171.87 -232.23)"/></svg>